<svg viewBox="0 0 400 400" xmlns="http://www.w3.org/2000/svg" role="img" aria-label="Ilustración de chicken sandwich OTTO">
  <circle cx="200" cy="200" r="190" fill="#FFFFFF"/>
  <circle cx="200" cy="200" r="190" fill="none" stroke="#063C98" stroke-width="10"/>
  <path d="M92 258 q108 36 216 0 l-4 30 q-104 30 -208 0 z" fill="#063C98" stroke="#0A0A0A" stroke-width="7" stroke-linejoin="round"/>
  <path d="M86 226 q114 34 228 0 q10 -34 -14 -50 q-100 -22 -200 0 q-24 16 -14 50 z" fill="#0A0A0A"/>
  <g fill="#FFD328">
    <circle cx="140" cy="210" r="4"/><circle cx="170" cy="196" r="3.5"/><circle cx="200" cy="212" r="4"/>
    <circle cx="230" cy="196" r="3.5"/><circle cx="260" cy="210" r="4"/><circle cx="150" cy="226" r="3"/><circle cx="250" cy="226" r="3"/>
  </g>
  <path d="M82 202 q118 28 236 0 l-8 16 q-110 22 -220 0 z" fill="#FFFFFF" stroke="#0A0A0A" stroke-width="6" stroke-linejoin="round"/>
  <path d="M98 186 q0 -66 102 -66 q102 0 102 66 z" fill="#FFD328" stroke="#0A0A0A" stroke-width="7" stroke-linejoin="round"/>
  <path d="M98 186 h204" stroke="#0A0A0A" stroke-width="7"/>
  <g stroke="#063C98" stroke-width="5" stroke-linecap="round" fill="none" opacity="0.7">
    <path d="M150 96 q-6 -18 6 -30"/>
    <path d="M200 88 q-6 -18 6 -30"/>
    <path d="M250 96 q-6 -18 6 -30"/>
  </g>
</svg>
